# xmcd
#
# Track frame offsets: 
#        150
#        13433
#        25307
#        37350
#        50138
#        63407
#        75880
#        88545
#        100720
#        112398
#        124423
#        135890
#        147798
#        158351
#        171068
#        183918
#        195973
#
# Disc length: 2829 seconds
#
# Revision: 0
# Processed by: cddbd v1.5.2PL0 Copyright (c) Steve Scherf et al.
# Submitted via: ExactAudioCopy v1.0b1
#
DISCID=e00b0b11
DTITLE=Ray Charles - The Best Of Ray Charles
DYEAR=1960
DGENRE=Blues
TTITLE0=Don't You Know
TTITLE1=The Sun's Gonna Shine Again
TTITLE2=It Should Have Been Me
TTITLE3=Heartbreaker
TTITLE4=Alone In This City
TTITLE5=Rocking Chair Blues
TTITLE6=Blues Before Sunrise
TTITLE7=Going Down Slow
TTITLE8=How Long Blues
TTITLE9=I Love You, I Love You, I Love You
TTITLE10=Here I Am, Let's Have A Ball
TTITLE11=See See Rider
TTITLE12=I Wonder Who's Kissing Her Now
TTITLE13=Can Anyone Ask For More
TTITLE14=Don't Put All Your Dreams In One Basket
TTITLE15=Mess Around
TTITLE16=Georgia On My Mind
EXTD=
EXTT0=
EXTT1=
EXTT2=
EXTT3=
EXTT4=
EXTT5=
EXTT6=
EXTT7=
EXTT8=
EXTT9=
EXTT10=
EXTT11=
EXTT12=
EXTT13=
EXTT14=
EXTT15=
EXTT16=
PLAYORDER=
